<?xml version="1.0" encoding="UTF-8" standalone="no"?>
<svg
   xmlns:dc="http://purl.org/dc/elements/1.1/"
   xmlns:cc="http://creativecommons.org/ns#"
   xmlns:rdf="http://www.w3.org/1999/02/22-rdf-syntax-ns#"
   xmlns:svg="http://www.w3.org/2000/svg"
   xmlns="http://www.w3.org/2000/svg"
   xmlns:xlink="http://www.w3.org/1999/xlink"
   xml:space="preserve"
   enable-background="new 0 0 743.76 1008"
   viewBox="0 0 185.828 185.828"
   height="185.828"
   width="185.828"
   y="0px"
   x="0px"
   id="Layer_1"
   version="1.1"><title
     id="title3444">Brought to you by City of Santa Monica</title><metadata
     id="metadata217"><rdf:RDF><cc:Work
         rdf:about=""><dc:format>image/svg+xml</dc:format><dc:type
           rdf:resource="http://purl.org/dc/dcmitype/StillImage" /><dc:title>Brought to you by City of Santa Monica</dc:title><dc:publisher><cc:Agent><dc:title>City of Santa Monica, California</dc:title></cc:Agent></dc:publisher></cc:Work></rdf:RDF></metadata><defs
     id="defs215"><defs
       id="defs7"><polyline
         points="0,0 743.883,0 743.883,1008 0,1008 0,0    "
         id="SVGID_1_" /></defs><clipPath
       id="SVGID_2_"><use
         height="100%"
         width="100%"
         y="0"
         x="0"
         style="overflow:visible"
         id="use11"
         overflow="visible"
         xlink:href="#SVGID_1_" /></clipPath><defs
       id="defs15"><polyline
         id="SVGID_3_"
         points="0,1008 743.883,1008 743.883,0 0,0 0,1008     " /></defs><clipPath
       id="SVGID_4_"><use
         xlink:href="#SVGID_3_"
         overflow="visible"
         id="use19"
         style="overflow:visible"
         x="0"
         y="0"
         width="100%"
         height="100%" /></clipPath></defs><g
     transform="translate(-15.77,-17.275)"
     clip-path="url(#SVGID_4_)"
     id="g45"><defs
       id="defs47"><polyline
         id="SVGID_7_"
         points="0,0 743.883,0 743.883,1008 0,1008 0,0      " /></defs><clipPath
       id="SVGID_8_"><use
         xlink:href="#SVGID_7_"
         overflow="visible"
         id="use51"
         style="overflow:visible"
         x="0"
         y="0"
         width="100%"
         height="100%" /></clipPath><line
       clip-path="url(#SVGID_8_)"
       x1="192.83501"
       y1="945.23401"
       x2="192.83501"
       y2="989.30701"
       id="line61" /><line
       clip-path="url(#SVGID_8_)"
       x1="325.02701"
       y1="945.23401"
       x2="325.02701"
       y2="989.30701"
       id="line63" /></g><g
     transform="translate(-15.77,-17.275)"
     clip-path="url(#SVGID_4_)"
     id="g95"><defs
       id="defs97"><polyline
         id="SVGID_13_"
         points="0,0 743.883,0 743.883,1008 0,1008 0,0      " /></defs><clipPath
       id="SVGID_14_"><use
         xlink:href="#SVGID_13_"
         overflow="visible"
         id="use101"
         style="overflow:visible"
         x="0"
         y="0"
         width="100%"
         height="100%" /></clipPath><path
       clip-path="url(#SVGID_14_)"
       d="m 199.945,110.188 c 0,50.404 -40.86,91.261 -91.259,91.261 -50.403,0 -91.262,-40.857 -91.262,-91.261 0,-50.401 40.859,-91.259 91.262,-91.259 50.399,0 91.259,40.859 91.259,91.259"
       id="path103" /><path
       clip-path="url(#SVGID_14_)"
       d="m 162.21,110.188 c 0,29.563 -23.962,53.527 -53.525,53.527 -29.563,0 -53.525,-23.964 -53.525,-53.527 0,-29.559 23.962,-53.526 53.525,-53.526 29.563,0 53.525,23.967 53.525,53.526"
       id="path107" /><path
       clip-path="url(#SVGID_14_)"
       d="m 162.21,110.188 0.827,0 c -0.001,30.02 -24.332,54.353 -54.352,54.354 -30.02,0 -54.351,-24.333 -54.352,-54.354 0,-30.016 24.332,-54.352 54.352,-54.353 30.02,0 54.351,24.337 54.352,54.353 l -0.827,0 -0.827,0 c 0,-14.554 -5.896,-27.724 -15.434,-37.263 -9.539,-9.538 -22.708,-15.436 -37.264,-15.437 -14.556,0 -27.726,5.898 -37.264,15.437 -9.538,9.54 -15.434,22.709 -15.435,37.263 0,14.556 5.897,27.726 15.435,37.265 9.539,9.538 22.708,15.435 37.264,15.436 14.556,0 27.725,-5.897 37.264,-15.436 9.538,-9.539 15.434,-22.709 15.434,-37.265 l 0.827,0 z"
       id="path109"
       style="fill:#ffffff" /></g><g
     id="g3409"><path
       style="fill:#ffffff"
       id="path111"
       d="m 46.831,66.409 c 0.378,-0.533 0.844,-0.553 1.527,-0.068 l 0.533,0.378 c 0.766,0.543 0.769,1.059 0.372,1.62 l -0.417,0.588 -2.529,-1.792 0.514,-0.726 z m 3.857,2.816 c 0.484,-0.684 0.961,-0.777 1.85,-0.147 l 0.834,0.591 c 0.711,0.504 0.75,0.942 0.391,1.448 l -0.61,0.861 -2.939,-2.083 0.474,-0.67 z m -5.195,-3.826 -1.608,2.27 9.57,6.783 1.676,-2.365 c 1.066,-1.504 0.825,-2.845 -0.651,-3.892 L 53.7,67.642 c -1.012,-0.717 -1.946,-0.907 -2.832,-0.323 l -0.027,-0.02 C 51.002,66.406 50.599,65.67 49.615,64.972 L 49.273,64.73 c -1.477,-1.046 -2.676,-0.89 -3.78,0.669 z"
       clip-path="url(#SVGID_4_)"
       transform="translate(-15.77,-17.275)" /><path
       style="fill:#ffffff"
       id="path113"
       d="m 53.158,58.626 c 0.445,-0.479 0.909,-0.437 1.523,0.133 l 0.847,0.787 c 0.688,0.638 0.624,1.15 0.157,1.654 l -0.49,0.528 -2.641,-2.451 0.604,-0.651 z m 9.41,4.64 C 62.124,63.105 61.805,62.832 61.387,62.445 L 60.06,61.214 C 59.164,60.382 58.319,60.01 57.41,60.423 L 57.386,60.401 C 57.662,59.537 57.359,58.73 56.474,57.909 L 55.8,57.282 c -1.327,-1.231 -2.536,-1.233 -3.835,0.167 l -1.893,2.039 8.599,7.979 1.254,-1.351 -3.501,-3.249 0.433,-0.467 c 0.57,-0.614 1.116,-0.611 1.914,0.13 l 1.351,1.254 c 0.7,0.649 0.881,0.726 1.17,0.857 l 1.276,-1.375 z"
       clip-path="url(#SVGID_4_)"
       transform="translate(-15.77,-17.275)" /><path
       style="fill:#ffffff"
       id="path115"
       d="m 62.779,59.222 c 1.198,1.444 2.644,1.638 4.036,0.483 1.393,-1.155 1.469,-2.612 0.271,-4.056 l -3.894,-4.693 c -1.198,-1.444 -2.643,-1.638 -4.036,-0.483 -1.393,1.155 -1.469,2.611 -0.271,4.056 l 3.894,4.693 z m -2.55,-5.961 c -0.535,-0.645 -0.455,-1.125 -0.003,-1.5 0.451,-0.374 0.938,-0.364 1.473,0.28 l 4.043,4.874 c 0.535,0.645 0.454,1.125 0.003,1.5 -0.451,0.375 -0.938,0.365 -1.473,-0.28 l -4.043,-4.874 z"
       clip-path="url(#SVGID_4_)"
       transform="translate(-15.77,-17.275)" /><path
       style="fill:#ffffff"
       id="path117"
       d="m 65.056,46.136 4.766,7.547 c 1.001,1.586 2.367,1.991 3.896,1.026 1.529,-0.966 1.75,-2.373 0.749,-3.958 l -4.767,-7.548 -1.473,0.93 4.829,7.646 c 0.447,0.708 0.296,1.16 -0.199,1.473 -0.495,0.313 -0.968,0.255 -1.415,-0.453 l -4.829,-7.646 -1.557,0.983 z"
       clip-path="url(#SVGID_4_)"
       transform="translate(-15.77,-17.275)" /><path
       style="fill:#ffffff"
       id="path119"
       d="m 79.201,46.042 0.76,-0.353 0.909,1.96 c 0.353,0.76 0.145,1.188 -0.387,1.436 -0.532,0.247 -0.993,0.128 -1.346,-0.632 l -2.665,-5.745 c -0.353,-0.76 -0.152,-1.204 0.38,-1.451 0.532,-0.247 1,-0.113 1.353,0.647 l 0.529,1.14 1.581,-0.733 -0.479,-1.034 c -0.79,-1.702 -2.092,-2.28 -3.733,-1.519 -1.642,0.761 -2.042,2.129 -1.252,3.831 l 2.566,5.532 c 0.79,1.702 2.092,2.28 3.733,1.519 1.641,-0.762 2.041,-2.129 1.251,-3.831 l -1.565,-3.374 -2.34,1.086 0.705,1.521 z"
       clip-path="url(#SVGID_4_)"
       transform="translate(-15.77,-17.275)" /><polygon
       style="fill:#ffffff"
       id="polygon121"
       points="83,37.046 86.461,48.251 88.222,47.707 86.739,42.905 88.739,42.287 90.223,47.089 92.015,46.536 88.555,35.331 86.762,35.885 88.245,40.687 86.244,41.305 84.761,36.502 "
       clip-path="url(#SVGID_4_)"
       transform="translate(-15.77,-17.275)" /><polygon
       style="fill:#ffffff"
       id="polygon123"
       points="94.844,35.673 96.547,45.579 98.363,45.267 96.661,35.361 98.559,35.035 98.275,33.384 92.662,34.349 92.946,36 "
       clip-path="url(#SVGID_4_)"
       transform="translate(-15.77,-17.275)" /><polygon
       style="fill:#ffffff"
       id="polygon125"
       points="109.229,34.409 109.036,44.461 110.879,44.497 111.072,34.444 112.999,34.481 113.03,32.806 107.334,32.696 107.302,34.372 "
       clip-path="url(#SVGID_4_)"
       transform="translate(-15.77,-17.275)" /><path
       style="fill:#ffffff"
       id="path127"
       d="m 115.79,41.958 c -0.268,1.858 0.557,3.061 2.348,3.319 1.792,0.259 2.923,-0.661 3.192,-2.519 l 0.872,-6.038 c 0.268,-1.857 -0.557,-3.061 -2.349,-3.319 -1.791,-0.258 -2.923,0.662 -3.191,2.52 l -0.872,6.037 z m 2.713,-5.89 c 0.12,-0.83 0.53,-1.092 1.111,-1.008 0.581,0.083 0.9,0.451 0.78,1.281 l -0.905,6.27 c -0.12,0.83 -0.53,1.092 -1.111,1.008 -0.581,-0.083 -0.9,-0.452 -0.78,-1.281 l 0.905,-6.27 z"
       clip-path="url(#SVGID_4_)"
       transform="translate(-15.77,-17.275)" /><polygon
       style="fill:#ffffff"
       id="polygon129"
       points="131.375,44.358 130.059,48.015 131.792,48.64 133.109,44.983 137.957,38.395 136.302,37.799 133.183,42.356 133.151,42.345 133.654,36.846 131.841,36.193 "
       clip-path="url(#SVGID_4_)"
       transform="translate(-15.77,-17.275)" /><path
       style="fill:#ffffff"
       id="path131"
       d="m 137.301,47.832 c -0.853,1.671 -0.459,3.076 1.152,3.898 1.611,0.822 2.979,0.316 3.832,-1.355 l 2.771,-5.432 c 0.853,-1.672 0.46,-3.076 -1.152,-3.898 -1.612,-0.822 -2.979,-0.316 -3.833,1.355 l -2.77,5.432 z m 4.466,-4.699 c 0.381,-0.746 0.854,-0.862 1.376,-0.596 0.522,0.267 0.706,0.718 0.326,1.464 l -2.878,5.641 c -0.381,0.746 -0.854,0.862 -1.376,0.596 -0.522,-0.266 -0.706,-0.718 -0.325,-1.464 l 2.877,-5.641 z"
       clip-path="url(#SVGID_4_)"
       transform="translate(-15.77,-17.275)" /><path
       style="fill:#ffffff"
       id="path133"
       d="m 150.257,44.772 -5.059,7.36 c -1.063,1.547 -0.897,2.962 0.594,3.987 1.491,1.025 2.872,0.672 3.935,-0.874 l 5.059,-7.36 -1.436,-0.987 -5.125,7.457 c -0.475,0.69 -0.949,0.73 -1.433,0.398 -0.483,-0.332 -0.616,-0.79 -0.142,-1.48 l 5.125,-7.457 -1.518,-1.044 z"
       clip-path="url(#SVGID_4_)"
       transform="translate(-15.77,-17.275)" /><path
       style="fill:#ffffff"
       id="path135"
       d="m 163.213,57.583 c 0.454,0.47 0.386,0.931 -0.217,1.512 l -0.47,0.454 c -0.675,0.651 -1.183,0.559 -1.66,0.065 l -0.5,-0.519 2.23,-2.151 0.617,0.639 z m -3.482,3.265 c 0.582,0.603 0.584,1.088 -0.199,1.844 l -0.735,0.709 c -0.627,0.604 -1.064,0.562 -1.495,0.115 l -0.732,-0.759 2.591,-2.5 0.57,0.591 z m 4.723,-4.392 -1.93,-2.001 -8.438,8.139 2.011,2.086 c 1.279,1.326 2.641,1.338 3.943,0.083 l 0.687,-0.663 c 0.892,-0.86 1.251,-1.742 0.843,-2.721 l 0.024,-0.023 c 0.847,0.323 1.646,0.065 2.513,-0.772 l 0.301,-0.291 c 1.302,-1.256 1.371,-2.463 0.046,-3.837 z"
       clip-path="url(#SVGID_4_)"
       transform="translate(-15.77,-17.275)" /><polygon
       style="fill:#ffffff"
       id="polygon137"
       points="163.969,67.883 160.854,70.205 161.955,71.682 165.07,69.36 172.745,66.542 171.694,65.132 166.58,67.21 166.56,67.184 170.013,62.876 168.861,61.332 "
       clip-path="url(#SVGID_4_)"
       transform="translate(-15.77,-17.275)" /></g><g
     transform="translate(-15.77,-17.275)"
     clip-path="url(#SVGID_4_)"
     id="g139"><defs
       id="defs141"><polyline
         id="SVGID_15_"
         points="0,0 743.883,0 743.883,1008 0,1008 0,0      " /></defs><clipPath
       id="SVGID_16_"><use
         xlink:href="#SVGID_15_"
         overflow="visible"
         id="use145"
         style="overflow:visible"
         x="0"
         y="0"
         width="100%"
         height="100%" /></clipPath><path
       clip-path="url(#SVGID_16_)"
       d="m 89.833,84.375 c 0.353,-0.82 0.802,-1.719 1.386,-2.418 0.313,-0.392 1.653,-1.539 1.989,-1.754 1.088,-0.697 2.845,-0.858 4.448,-0.625 0.138,0.026 1.257,0.363 2.489,1.029 0.815,0.437 2.04,1.338 2.2,2.099 0.265,1.24 0.15,1.702 -0.068,2.732 -0.31,1.479 -2.294,2.327 -2.489,2.404 -0.898,0.426 -1.729,0.816 -2.454,0.493 -0.553,-0.252 -1.681,-1.013 -2.107,-1.481 -0.499,-1.499 -0.108,-2.168 -0.108,-2.168 0.04,0.079 0.378,0.796 0.594,1.048 0.412,0.483 0.949,1.12 2.006,1.203 0.557,0.041 2.306,-0.527 2.391,-0.611 0.625,-0.625 0.76,-1.706 0.565,-2.683 -0.272,-0.701 -0.973,-2.175 -1.131,-2.252 -0.349,-0.232 -1.54,-0.511 -1.812,-0.55 -0.74,-0.119 -1.366,-0.199 -2.106,-0.038 -0.665,0.19 -3.118,1.409 -3.467,1.679 -0.429,0.313 -0.936,1.348 -1.171,1.813 -0.038,0.08 -0.375,2.143 -0.455,2.981 -0.094,0.939 0.192,2.309 0.459,3.008 0.386,0.72 2.088,1.839 2.843,2.271 0.374,0.216 2.127,0.571 2.449,0.663 0.806,0.234 2.044,0.527 2.733,0.434 1.07,-0.143 2.066,-0.369 3.081,-0.719 0.115,-0.041 1.477,-0.547 1.811,-0.774 1.153,-0.794 2.399,-1.742 2.789,-2.405 0.158,-0.312 0.821,-2.066 0.977,-2.493 0.389,-1.366 0.999,-3.095 0.233,-4.281 -0.616,-0.947 -0.807,-2.267 -1.747,-3.283 -1.106,-1.201 -2.715,-2.301 -2.796,-2.342 -0.858,-0.436 -1.304,-0.778 -2.084,-1.089 -0.353,-0.157 -1.891,-0.283 -2.242,-0.283 -1.366,-0.08 -2.605,-0.049 -3.998,0.341 -0.492,0.136 -2.3,0.837 -2.73,1.113 -0.895,0.661 -1.441,1.285 -2.103,2.141 -0.196,0.236 -0.899,1.405 -1.013,1.601 -0.154,0.255 -0.391,1.712 -0.423,2.045 -0.057,0.626 0.069,1.171 0.048,1.697 0,0.075 0.156,0.898 0.215,1.228 0.039,0.252 0.155,0.525 0.214,0.78 l 0.221,-1.232"
       id="path147"
       style="fill:#ffffff" /><path
       clip-path="url(#SVGID_16_)"
       d="m 145.831,90.612 c 0.292,0 1.874,0.545 2.104,0.538 l 0,12.267 -43.821,0 c 0.235,-0.287 1.01,-0.816 1.166,-0.942 0.509,-0.42 1.723,-1.225 1.943,-1.479 0.451,-0.521 1.679,-1.393 1.875,-1.546 0.267,-0.218 2.129,-0.546 2.85,-0.939 0.239,-0.135 1.527,-0.733 2.07,-0.952 0.669,-0.269 2.673,-1.088 3.386,-1.088 0.413,0 1.78,-0.472 2.07,-0.808 l 4.725,-0.261 c 0.679,0 4.079,-0.125 5.084,-0.316 1.023,-0.191 5.712,-2.982 6.599,-3.157 0.307,-0.061 1.979,-0.159 2.173,-0.283 0.38,-0.242 1.586,-0.784 2.435,-0.901 0.48,-0.065 2.299,-0.199 2.98,-0.199 0.357,0 1.788,0.066 2.361,0.066"
       id="path149"
       style="fill:#ffffff" /><path
       clip-path="url(#SVGID_16_)"
       d="m 68.991,105.727 c 2.337,0 8.192,0.037 9.949,0.037 12.967,0 18.411,0.702 24.28,1.335 2.716,0.291 26.317,3.298 26.317,17.234 0,11.728 -16.977,16.563 -21.191,16.563 -7.408,0 -25.392,-0.004 -25.392,-0.004 5.933,-1.599 36.459,-7.537 37.351,-17.377 1.658,-18.17 -48.478,-17.344 -51.314,-17.435 l 0,-0.353 z"
       id="path151"
       style="fill:#ffffff" /><path
       clip-path="url(#SVGID_16_)"
       d="m 144.699,138.69 c 1.034,0 1.858,0.843 1.858,1.893 0,1.065 -0.824,1.898 -1.869,1.898 -1.035,0 -1.876,-0.833 -1.876,-1.898 0,-1.05 0.841,-1.893 1.876,-1.893 l 0.011,0 z m -0.011,0.293 c -0.831,0 -1.513,0.716 -1.513,1.6 0,0.9 0.682,1.604 1.524,1.604 0.839,0.007 1.513,-0.704 1.513,-1.598 0,-0.89 -0.674,-1.606 -1.513,-1.606 l -0.011,0 z m -0.354,2.702 -0.333,0 0,-2.11 c 0.173,-0.027 0.342,-0.052 0.595,-0.052 0.318,0 0.532,0.07 0.658,0.163 0.124,0.09 0.187,0.233 0.187,0.436 0,0.277 -0.183,0.442 -0.408,0.513 l 0,0.015 c 0.185,0.034 0.309,0.201 0.351,0.513 0.055,0.331 0.106,0.457 0.135,0.522 l -0.35,0 c -0.052,-0.065 -0.105,-0.263 -0.144,-0.537 -0.049,-0.272 -0.187,-0.37 -0.458,-0.37 l -0.233,0 0,0.907 z m 0,-1.167 0.245,0 c 0.276,0 0.513,-0.104 0.513,-0.364 0,-0.183 -0.137,-0.37 -0.513,-0.37 -0.109,0 -0.186,0.012 -0.245,0.017 l 0,0.717 z"
       id="path153"
       style="fill:#ffffff" /></g><g
     id="g3425"><path
       style="fill:#ffffff"
       id="path155"
       d="m 35.727,100.836 c -0.241,-0.042 -1.731,-1.252 -1.403,-3.162 0.201,-1.168 1.649,-2.599 4.708,-2.073 3.281,0.565 3.946,2.359 3.746,3.527 -0.287,1.668 -1.396,2.451 -2.322,2.292 l -0.723,-0.125 -0.405,2.354 5.172,0.89 0.405,-2.354 -0.704,-0.121 c 0.342,-0.438 0.743,-1.323 0.95,-2.528 0.606,-3.522 -1.531,-6.524 -5.554,-7.216 -3.745,-0.644 -7.021,1.426 -7.627,4.949 -0.612,3.56 1.3,5.091 2.871,5.838 l 0.886,-2.271 z"
       clip-path="url(#SVGID_4_)"
       transform="translate(-15.77,-17.275)" /><polygon
       style="fill:#ffffff"
       id="polygon157"
       points="41.755,112.249 44.107,112.287 44.195,106.887 41.843,106.849 41.824,108.034 33.357,107.896 33.377,106.711 31.044,106.674 30.956,112.073 33.289,112.111 33.309,110.926 41.775,111.063 "
       clip-path="url(#SVGID_4_)"
       transform="translate(-15.77,-17.275)" /><path
       style="fill:#ffffff"
       id="path159"
       d="m 44.251,115.731 -4.648,-0.684 0.382,2.319 0.742,0.106 c 0.482,0.149 1.489,0.479 1.565,0.943 l 0.192,1.169 -8.35,1.373 -0.192,-1.169 -2.338,0.385 0.882,5.362 2.338,-0.385 -0.195,-1.188 8.35,-1.373 0.232,1.41 c 0.04,0.241 -0.812,0.857 -1.218,1.172 l -0.668,0.339 0.381,2.319 4.184,-2.137 -1.639,-9.961 z"
       clip-path="url(#SVGID_4_)"
       transform="translate(-15.77,-17.275)" /><path
       style="fill:#ffffff"
       id="path161"
       d="m 47.202,136.53 0,0 -2.408,-0.289 1.432,-2.137 0.091,0.227 2.165,-0.871 -1.839,-4.573 -2.165,0.87 0.435,1.083 c 0,0 -0.136,0.318 -3.084,4.282 -0.122,0.15 -0.467,0.452 -0.816,0.592 l -2.793,1.123 -0.442,-1.1 -2.2,0.885 2.015,5.01 2.199,-0.885 -0.428,-1.064 2.793,-1.123 c 0.245,-0.099 0.681,-0.274 0.992,-0.156 4.879,0.837 5.19,0.955 5.19,0.955 l 0.435,1.082 2.165,-0.87 -1.572,-3.91 -1.309,0.526 -0.856,0.343 z"
       clip-path="url(#SVGID_4_)"
       transform="translate(-15.77,-17.275)" /><path
       style="fill:#ffffff"
       id="path163"
       d="m 49.636,157.158 c -1.195,-1.5 -0.622,-3.497 1.438,-5.137 2.088,-1.664 4.163,-1.777 5.358,-0.277 1.055,1.324 0.492,3.334 -1.596,4.999 -2.06,1.64 -4.146,1.739 -5.2,0.415 z m 8.693,-6.926 c -1.945,-2.442 -5.621,-3.554 -9.224,-0.683 -3.766,3 -3.297,6.667 -1.352,9.108 1.816,2.28 5.238,3.858 9.18,0.718 3.795,-3.022 3.213,-6.863 1.396,-9.143 z"
       clip-path="url(#SVGID_4_)"
       transform="translate(-15.77,-17.275)" /><path
       style="fill:#ffffff"
       id="path165"
       d="m 63.148,156.156 -1.505,1.807 0.91,0.758 -5.43,6.517 -0.91,-0.759 -1.517,1.821 4.176,3.479 1.517,-1.821 -0.925,-0.771 2.106,-2.529 1.286,1.072 -0.602,0.722 1.807,1.505 2.721,-3.266 -1.806,-1.505 -0.614,0.737 -1.286,-1.071 1.818,-2.182 2.37,1.975 c 1.069,0.891 0.499,1.958 0.084,2.837 l 1.806,1.505 2.143,-4.042 -8.149,-6.789 z"
       clip-path="url(#SVGID_4_)"
       transform="translate(-15.77,-17.275)" /><path
       style="fill:#ffffff"
       id="path167"
       d="m 80.913,173.865 c -1.296,-1.112 -1.857,-1.609 -1.574,-2.245 0.291,-0.653 1.341,-0.7 1.994,-0.41 1.718,0.765 1.872,2.13 1.589,2.766 l -0.092,0.206 2.165,0.963 1.819,-4.089 -2.165,-0.963 -0.581,1.306 c 0.084,-0.745 -0.261,-1.681 -1.773,-2.353 -2.371,-1.055 -4.976,-0.382 -5.832,1.542 -1.055,2.371 1.033,4.062 2.329,5.174 1.659,1.5 2.409,2.08 1.927,3.163 -0.283,0.636 -1.753,0.517 -2.835,0.035 -1.289,-0.573 -1.989,-1.914 -1.606,-2.773 l 0.481,-1.082 -2.148,-0.956 -2.202,4.948 2.148,0.956 0.573,-1.289 c 0.064,1.058 1.145,2.053 2.227,2.535 1.083,0.481 4.519,2.01 6.048,-1.426 1.347,-3.024 -0.965,-4.814 -2.492,-6.008 z"
       clip-path="url(#SVGID_4_)"
       transform="translate(-15.77,-17.275)" /><path
       style="fill:#ffffff"
       id="path169"
       d="m 92.908,180.014 1.531,-2.357 0.57,2.782 -2.101,-0.425 z m 3.641,-6.44 -1.696,-0.342 c 0,0 -5.747,8.412 -6.469,9.705 l -1.382,-0.279 -0.465,2.304 4.589,0.927 0.462,-2.286 -0.682,-0.138 0.799,-1.297 3.649,0.737 c 0.143,0.527 0.234,1.025 0.362,1.531 l -0.682,-0.138 -0.461,2.286 5.309,1.072 0.465,-2.304 -1.383,-0.279 c -0.15,-0.491 -2.453,-11.507 -2.453,-11.507 l 0.038,0.008 z"
       clip-path="url(#SVGID_4_)"
       transform="translate(-15.77,-17.275)" /><path
       style="fill:#ffffff"
       id="path171"
       d="m 111.934,176.979 1.41,-0.038 0.126,4.7 -5.152,-6.917 -4.211,0.113 0.063,2.35 1.41,-0.038 0.228,8.479 -1.41,0.038 0.063,2.35 4.944,-0.133 -0.063,-2.35 c 0,0 -1.185,0.032 -1.429,0.038 l -0.158,-5.884 6.349,8.069 1.88,-0.05 -0.29,-10.828 1.185,-0.032 -0.063,-2.35 -4.944,0.132 0.062,2.351 z"
       clip-path="url(#SVGID_4_)"
       transform="translate(-15.77,-17.275)" /><path
       style="fill:#ffffff"
       id="path173"
       d="m 120.013,173.865 -0.261,4.69 2.275,-0.589 0.04,-0.749 c 0.105,-0.494 0.343,-1.526 0.798,-1.644 l 1.147,-0.297 2.122,8.191 -1.147,0.297 0.594,2.294 5.261,-1.363 -0.594,-2.293 -1.165,0.302 -2.122,-8.192 1.384,-0.358 c 0.236,-0.061 0.927,0.731 1.277,1.107 l 0.397,0.635 2.275,-0.589 -2.506,-3.974 -9.775,2.532 z"
       clip-path="url(#SVGID_4_)"
       transform="translate(-15.77,-17.275)" /><path
       style="fill:#ffffff"
       id="path175"
       d="m 137.968,175.516 -0.188,-2.804 2.124,1.884 -1.936,0.92 z m -0.947,-7.336 -1.563,0.742 c 0,0 0.445,10.178 0.643,11.646 l -1.274,0.605 1.009,2.123 4.229,-2.01 -1.001,-2.106 -0.628,0.299 -0.138,-1.517 3.363,-1.598 c 0.431,0.337 0.802,0.681 1.208,1.008 l -0.628,0.299 1.001,2.106 4.891,-2.325 -1.009,-2.123 -1.274,0.605 c -0.415,-0.303 -8.862,-7.739 -8.862,-7.739 l 0.033,-0.015 z"
       clip-path="url(#SVGID_4_)"
       transform="translate(-15.77,-17.275)" /><path
       style="fill:#ffffff"
       id="path177"
       d="m 160.069,162.332 -9.458,-2.915 -2.521,2.479 1.648,1.677 1.02,-1.002 5.946,6.049 -1.02,1.002 1.648,1.677 3.354,-3.296 -1.648,-1.677 -0.671,0.659 -3.125,-3.179 c 1.976,0.669 7.281,2.39 7.281,2.39 l 1.019,-1.002 -2.455,-6.844 2.979,3.031 -0.657,0.646 1.648,1.677 3.85,-3.784 -1.648,-1.677 -1.006,0.989 -5.946,-6.049 1.006,-0.989 -1.648,-1.677 -2.683,2.637 3.087,9.178 z"
       clip-path="url(#SVGID_4_)"
       transform="translate(-15.77,-17.275)" /><path
       style="fill:#ffffff"
       id="path179"
       d="m 172.819,149.947 c -1.012,1.629 -3.084,1.759 -5.321,0.371 -2.269,-1.409 -3.072,-3.324 -2.06,-4.953 0.893,-1.438 2.975,-1.584 5.244,-0.175 2.236,1.388 3.029,3.319 2.137,4.757 z m -9.442,-5.862 c -1.646,2.652 -1.459,6.487 2.455,8.917 4.09,2.539 7.385,0.867 9.032,-1.785 1.538,-2.476 1.875,-6.229 -2.407,-8.887 -4.122,-2.559 -7.542,-0.721 -9.08,1.755 z"
       clip-path="url(#SVGID_4_)"
       transform="translate(-15.77,-17.275)" /><path
       style="fill:#ffffff"
       id="path181"
       d="m 172.237,131.049 0.468,-1.331 4.437,1.561 -8.302,2.344 -1.398,3.975 2.218,0.78 0.468,-1.331 8.003,2.814 -0.468,1.331 2.218,0.78 1.641,-4.667 -2.218,-0.78 c 0,0 -0.393,1.118 -0.474,1.349 l -5.554,-1.953 9.807,-3.052 0.624,-1.775 -10.222,-3.595 0.393,-1.118 -2.218,-0.78 -1.641,4.667 2.218,0.781 z"
       clip-path="url(#SVGID_4_)"
       transform="translate(-15.77,-17.275)" /><polygon
       style="fill:#ffffff"
       id="polygon183"
       points="175.155,118.239 172.833,117.865 171.976,123.195 174.296,123.569 174.485,122.399 182.841,123.745 182.653,124.915 184.956,125.285 185.814,119.956 183.511,119.585 183.323,120.755 174.966,119.409 "
       clip-path="url(#SVGID_4_)"
       transform="translate(-15.77,-17.275)" /><path
       style="fill:#ffffff"
       id="path185"
       d="m 182.209,107.617 c 0.245,0.004 1.904,0.972 1.872,2.909 -0.019,1.186 -1.231,2.822 -4.335,2.771 -3.33,-0.054 -4.263,-1.725 -4.244,-2.91 0.027,-1.693 1.002,-2.638 1.943,-2.622 l 0.733,0.012 0.039,-2.389 -5.249,-0.085 -0.039,2.39 0.715,0.012 c -0.271,0.484 -0.531,1.421 -0.551,2.645 -0.058,3.574 2.515,6.213 6.598,6.279 3.8,0.062 6.721,-2.488 6.779,-6.063 0.059,-3.612 -2.067,-4.833 -3.734,-5.33 l -0.527,2.381 z"
       clip-path="url(#SVGID_4_)"
       transform="translate(-15.77,-17.275)" /><path
       style="fill:#ffffff"
       id="path187"
       d="m 179.149,97.571 -2.767,-0.501 2.346,-1.602 0.421,2.103 z m -7.35,-0.869 0.34,1.697 c 0,0 9.985,2.05 11.457,2.216 l 0.277,1.384 2.306,-0.462 -0.919,-4.593 -2.288,0.458 0.137,0.683 -1.506,-0.236 -0.731,-3.652 c 0.432,-0.336 0.856,-0.613 1.273,-0.927 l 0.137,0.683 2.287,-0.458 -1.063,-5.313 -2.306,0.461 0.277,1.384 c -0.395,0.328 -9.669,6.713 -9.669,6.713 l -0.009,-0.038 z"
       clip-path="url(#SVGID_4_)"
       transform="translate(-15.77,-17.275)" /></g><g
     transform="translate(-15.77,-17.275)"
     clip-path="url(#SVGID_4_)"
     id="g189"><defs
       id="defs191"><polyline
         id="SVGID_17_"
         points="0,0 743.883,0 743.883,1008 0,1008 0,0      " /></defs><clipPath
       id="SVGID_18_"><use
         xlink:href="#SVGID_17_"
         overflow="visible"
         id="use195"
         style="overflow:visible"
         x="0"
         y="0"
         width="100%"
         height="100%" /></clipPath><path
       clip-path="url(#SVGID_18_)"
       d="m 45.301,81.162 c 0,1.571 -1.274,2.845 -2.846,2.845 -1.572,0 -2.847,-1.274 -2.847,-2.845 0,-1.571 1.275,-2.846 2.847,-2.846 1.572,0 2.846,1.275 2.846,2.846"
       id="path197"
       style="fill:#ffffff" /><path
       clip-path="url(#SVGID_18_)"
       d="m 176.354,78.319 c 0,1.569 -1.274,2.843 -2.845,2.843 -1.573,0 -2.847,-1.274 -2.847,-2.843 0,-1.575 1.274,-2.848 2.847,-2.848 1.571,0 2.845,1.273 2.845,2.848"
       id="path199"
       style="fill:#ffffff" /></g><g
     transform="translate(-15.77,-17.275)"
     id="g201" /><g
     transform="translate(-15.77,-17.275)"
     id="g203" /><g
     transform="translate(-15.77,-17.275)"
     id="g205" /><g
     transform="translate(-15.77,-17.275)"
     id="g207" /><g
     transform="translate(-15.77,-17.275)"
     id="g209" /><g
     transform="translate(-15.77,-17.275)"
     id="g211" /></svg>